<svg width="56" height="53" viewBox="0 0 56 53" fill="none" xmlns="http://www.w3.org/2000/svg">
<path d="M28.2838 0.282837C21.2407 0.282837 13.417 2.91764 11.7709 11.5314C11.595 12.4487 12.2373 12.919 12.8426 13.0531L19.9926 13.7811C20.6648 13.7455 21.2003 13.1217 21.3301 12.4599C21.9459 9.49235 24.4587 8.02596 27.2776 8.02596C28.8001 8.02596 30.5247 8.59563 31.4252 9.94435C32.4661 11.4501 32.2924 13.4969 32.2924 15.2414V16.2313C28.0012 16.7088 22.4059 17.0003 18.3932 18.7469C13.7565 20.7302 10.5029 24.7758 10.5029 30.7236C10.5029 38.3342 15.3696 42.1726 21.6001 42.1726C26.863 42.1726 29.702 40.9106 33.7649 36.8142C35.1074 38.7388 35.5848 39.6852 38.0435 41.7104C38.5964 42.0036 39.294 41.9496 39.7819 41.514V41.5795C41.2584 40.2768 43.9515 37.9419 45.4594 36.6833C46.0605 36.1932 45.9306 35.4289 45.4594 34.7608C44.1065 32.9115 42.7188 31.3767 42.7188 27.9421V16.5585C42.7188 11.7228 43.0466 7.24911 39.4465 3.9192C36.6046 1.22176 31.8818 0.282837 28.2838 0.282837ZM30.2881 22.1174C30.9562 22.0734 31.6222 22.1174 32.2924 22.1174V23.7044C32.2945 26.561 32.4083 28.9093 30.9548 31.4476C29.7779 33.5083 27.8867 34.7567 25.8091 34.7567C22.9693 34.7567 21.3261 32.6304 21.3261 29.4596C21.3261 24.004 25.6179 22.421 30.2881 22.1174ZM51.1041 40.5364C49.2004 40.5636 46.9699 40.9627 45.2631 42.148C44.7395 42.5124 44.8158 43.027 45.398 42.9579C47.3185 42.7297 51.5628 42.1929 52.3272 43.1584C53.0895 44.1259 51.485 48.1008 50.7687 49.8789C50.5509 50.415 51.0231 50.6227 51.5132 50.2143C54.7091 47.5671 55.5616 42.0769 54.9082 41.2727C54.5836 40.8811 53.0099 40.5092 51.1041 40.5364ZM1.04587 41.5427C0.647955 41.595 0.492029 42.1127 0.910886 42.4875C8.01469 48.8374 17.3799 52.6399 27.8052 52.6399C35.242 52.6399 43.9229 50.3348 49.8811 45.9807C50.8654 45.2582 50.009 44.1444 49.0017 44.5696C42.323 47.3759 35.0221 48.7377 28.4188 48.7377C18.628 48.7377 9.18743 46.0924 1.52445 41.6776C1.35481 41.5813 1.17571 41.5259 1.04587 41.5427Z" fill="#261141" fill-opacity="0.6"/>
</svg>
