<svg width="18" height="10" viewBox="0 0 18 10" fill="none" xmlns="http://www.w3.org/2000/svg">
<path d="M9.01243 9.80002C9.22025 9.7967 9.41862 9.71265 9.56556 9.56564L17.5656 1.56564C17.6423 1.49192 17.7036 1.40363 17.7459 1.30593C17.7881 1.20822 17.8104 1.10308 17.8115 0.996645C17.8126 0.890212 17.7924 0.784634 17.7522 0.686091C17.7119 0.58755 17.6524 0.498026 17.5772 0.422763C17.5019 0.3475 17.4124 0.28801 17.3139 0.247778C17.2153 0.207547 17.1097 0.187383 17.0033 0.188466C16.8969 0.189548 16.7917 0.211857 16.694 0.254085C16.5963 0.296312 16.508 0.357612 16.4343 0.43439L8.99993 7.86877L1.56556 0.43439C1.49184 0.357611 1.40355 0.296311 1.30584 0.254084C1.20814 0.211855 1.10299 0.189545 0.996561 0.188461C0.890127 0.187378 0.784548 0.207544 0.686007 0.247775C0.587463 0.288007 0.49794 0.347495 0.422676 0.422758C0.347412 0.498022 0.287924 0.587546 0.247692 0.686089C0.20746 0.784631 0.187296 0.89021 0.188379 0.996643C0.189463 1.10308 0.211771 1.20822 0.254 1.30593C0.296228 1.40363 0.357529 1.49192 0.434307 1.56564L8.43431 9.56564C8.51007 9.64143 8.60028 9.70123 8.69959 9.7415C8.7989 9.78176 8.90528 9.80166 9.01243 9.80002Z" fill="#271337"/>
</svg>
