<svg width="30" height="29" viewBox="0 0 30 29" fill="none" xmlns="http://www.w3.org/2000/svg">
<path d="M15.0001 0.6C7.0477 0.6 0.600098 7.0476 0.600098 15C0.600098 21.7476 5.2465 27.3936 11.5105 28.956C11.4433 28.7616 11.4001 28.536 11.4001 28.2564V25.7952C10.8157 25.7952 9.8365 25.7952 9.5905 25.7952C8.6053 25.7952 7.7293 25.3716 7.3045 24.5844C6.8329 23.7096 6.7513 22.3716 5.5825 21.5532C5.2357 21.2808 5.4997 20.97 5.8993 21.012C6.6373 21.2208 7.2493 21.7272 7.8253 22.4784C8.3989 23.2308 8.6689 23.4012 9.7405 23.4012C10.2601 23.4012 11.0377 23.3712 11.7697 23.256C12.1633 22.2564 12.8437 21.336 13.6753 20.9016C8.8801 20.4084 6.5917 18.0228 6.5917 14.784C6.5917 13.3896 7.1857 12.0408 8.1949 10.9044C7.8637 9.7764 7.4473 7.476 8.3221 6.6C10.4797 6.6 11.7841 7.9992 12.0973 8.3772C13.1725 8.0088 14.3533 7.8 15.5941 7.8C16.8373 7.8 18.0229 8.0088 19.1005 8.3796C19.4101 8.004 20.7157 6.6 22.8781 6.6C23.7565 7.4772 23.3353 9.7872 23.0005 10.9128C24.0037 12.0468 24.5941 13.392 24.5941 14.784C24.5941 18.0204 22.3093 20.4048 17.5213 20.9004C18.8389 21.588 19.8001 23.52 19.8001 24.9756V28.2564C19.8001 28.3812 19.7725 28.4712 19.7581 28.578C25.3693 26.6112 29.4001 21.2832 29.4001 15C29.4001 7.0476 22.9525 0.6 15.0001 0.6Z" fill="#2B204E"/>
</svg>
