<svg width="64" height="26" viewBox="0 0 64 26" fill="none" xmlns="http://www.w3.org/2000/svg">
<path d="M0.656738 0.601807H12.8887V2.32468H0.656738V0.601807ZM27.7859 0.601807H14.641V2.32468H32.1642L31.8894 2.05962L31.536 1.80438L31.1678 1.54914L30.7653 1.33808L30.3677 1.14665L29.9652 0.984666L29.5333 0.842321L29.0964 0.74906L28.6694 0.670524L28.2424 0.601807H27.7859ZM35.61 0.601807V2.32468H46.1632L45.5546 0.601807H35.61ZM53.6339 0.601807L53.0253 2.32468H63.4852V0.601807H53.6339ZM0.656738 3.95429V5.64772H12.8887V3.95429H0.656738ZM4.15157 7.27242V9.00511H9.3791V7.27242H4.15157ZM4.15157 10.6053V12.3429H9.3791V10.6053H4.15157ZM33.4012 3.95429H14.641V5.64772H34.054L33.8478 4.96544L33.6859 4.51877L33.4944 4.11627L33.4012 3.95429ZM18.1358 7.27242V9.00511H23.3584V7.27242H18.1358ZM34.216 7.27242H28.6203V9.00511H33.9313L33.9804 8.85786L34.0835 8.43082L34.1522 7.99397L34.2013 7.5473L34.216 7.27242ZM33.1901 10.6053H18.1358V12.3429H31.536L31.8305 12.1465L32.1642 11.8569L32.4686 11.5379L32.7533 11.2041L33.0281 10.8507L33.1901 10.6053ZM35.61 3.95429V5.64772H47.3314L46.7228 3.95429H35.61ZM63.4852 3.95429H52.4608L51.8718 5.64772H63.4852V3.95429ZM39.1097 7.27242V9.00511H48.4849L47.8763 7.27242H39.1097ZM60.0787 7.27242H51.2926L50.6937 9.00511H60.0787V7.27242ZM44.9017 12.338H54.3064L54.8365 10.7967V12.338H60.0787V10.6053H50.1391L49.5942 12.1465L49.0494 10.6053H39.1097V12.338H44.352V10.7869L44.9017 12.338ZM0.656738 23.9661V25.7136H12.8887V23.9661H0.656738ZM0.656738 20.6087V22.3562H12.8887V20.6087H0.656738ZM4.15157 13.9578V15.6757H9.3791V13.9578H4.15157ZM4.15157 17.2906V19.0233H9.3791V17.2906H4.15157ZM31.536 13.9578H18.1358V15.6757H33.1901L33.0281 15.4696L32.7533 15.1162L32.4686 14.7775L32.1642 14.4535L31.8256 14.1688L31.536 13.9578ZM18.1358 17.2906V19.0233H23.3584V17.2906H18.1358ZM33.9313 17.2906H28.6203V19.0233H34.216L34.2062 18.7632L34.1522 18.3165L34.0884 17.8895L33.9804 17.4575L33.9313 17.2906ZM34.054 20.6087H14.641V22.3562H33.4012L33.4944 22.204L33.6859 21.7966L33.8478 21.3794L33.9804 20.9622L34.054 20.6087ZM32.1642 23.9661H14.641V25.7136H27.7221L28.1736 25.6939L28.6203 25.6448L29.0375 25.5663L29.4695 25.473L29.9063 25.3209L30.3039 25.1687L30.7064 24.9724L31.1089 24.7613L31.4721 24.5208L31.8305 24.2459L32.1642 23.9661ZM39.1097 13.9578V15.6757H44.352V13.9578H39.1097ZM53.1382 15.6757L53.7419 13.9578H45.4417L46.0307 15.6757H53.1382ZM54.8365 13.9578V15.6757H60.0787V13.9578H54.8365ZM39.1097 17.2906V19.0233H44.352V17.2906H39.1097ZM52.608 17.2906H46.5804L47.1744 19.0233H52.0141L52.608 17.2906ZM54.8365 17.2906V19.0233H60.0787V17.2906H54.8365ZM35.61 20.6087V22.3562H44.352V20.6087H35.61ZM51.4644 20.6087H47.7143L48.3131 22.3562H50.8753L51.4644 20.6087ZM54.8365 20.6087V22.3562H63.4852V20.6087H54.8365ZM35.61 23.9661V25.7136H44.352V23.9661H35.61ZM54.8365 23.9661V25.7136H63.4852V23.9661H54.8365ZM49.7169 25.7136L50.3158 23.9711H48.8727L49.4617 25.7136H49.7169Z" fill="#261141" fill-opacity="0.6"/>
</svg>
