<svg width="96" height="40" viewBox="0 0 96 40" fill="none" xmlns="http://www.w3.org/2000/svg">
<path d="M8.48864 33.4474C7.30398 33.4474 6.22159 33.2173 5.24148 32.7571C4.26136 32.2884 3.48153 31.6151 2.90199 30.7372C2.32244 29.8509 2.03267 28.777 2.03267 27.5156C2.03267 26.544 2.21591 25.7259 2.58239 25.0611C2.94886 24.3963 3.46875 23.8509 4.14205 23.4247C4.81534 22.9986 5.61222 22.6619 6.53267 22.4148C7.45313 22.1676 8.46733 21.9759 9.57528 21.8395C10.6747 21.7031 11.6037 21.5838 12.3622 21.4815C13.1293 21.3793 13.7131 21.2173 14.1136 20.9957C14.5142 20.7741 14.7145 20.4162 14.7145 19.9219V19.4616C14.7145 18.1236 14.3139 17.071 13.5128 16.304C12.7202 15.5284 11.5781 15.1406 10.0866 15.1406C8.67188 15.1406 7.51705 15.4517 6.62216 16.0739C5.7358 16.696 5.11364 17.429 4.75568 18.2727L2.59517 17.4929C3.03835 16.419 3.65199 15.5625 4.43608 14.9233C5.22017 14.2756 6.09801 13.8111 7.0696 13.5298C8.04119 13.2401 9.02557 13.0952 10.0227 13.0952C10.7727 13.0952 11.5526 13.1932 12.3622 13.3892C13.1804 13.5852 13.9389 13.9261 14.6378 14.4119C15.3366 14.8892 15.9034 15.5582 16.3381 16.419C16.7727 17.2713 16.9901 18.3537 16.9901 19.6662V33H14.7145V29.8935H14.5739C14.3011 30.473 13.8963 31.0355 13.3594 31.581C12.8224 32.1264 12.1491 32.5739 11.3395 32.9233C10.5298 33.2727 9.57955 33.4474 8.48864 33.4474ZM8.79545 31.3636C10.0057 31.3636 11.054 31.0952 11.9403 30.5582C12.8267 30.0213 13.5085 29.3097 13.9858 28.4233C14.4716 27.5284 14.7145 26.544 14.7145 25.4702V22.6321C14.544 22.794 14.2585 22.9389 13.858 23.0668C13.4659 23.1946 13.0099 23.3097 12.4901 23.4119C11.9787 23.5057 11.4673 23.5866 10.956 23.6548C10.4446 23.723 9.98438 23.7827 9.57528 23.8338C8.46733 23.9702 7.52131 24.1832 6.73722 24.473C5.95313 24.7628 5.35227 25.1634 4.93466 25.6747C4.51705 26.1776 4.30824 26.8253 4.30824 27.6179C4.30824 28.8111 4.73438 29.7358 5.58665 30.392C6.43892 31.0398 7.50852 31.3636 8.79545 31.3636ZM21.1249 12.6364H26.4346L32.0426 26.3182H32.2812L37.8892 12.6364H43.1988V33H39.0227V19.7457H38.8536L33.5838 32.9006H30.74L25.4701 19.696H25.3011V33H21.1249V12.6364ZM49.724 33H45.1103L52.1402 12.6364H57.6885L64.7084 33H60.0947L54.9939 17.2898H54.8348L49.724 33ZM49.4356 24.9957H60.3334V28.3565H49.4356V24.9957Z" fill="white"/>
<path d="M74 34C75.7143 27.28 82.1143 13.84 94 13.84C87.7143 13.28 71.0286 13.952 66 18.88C70.1905 22.24 83.4857 28.736 91.7143 30.08C84.8571 24.48 72.0571 11.824 75.7143 6C73.4286 12.5333 69.3143 26.496 71.1429 30.08" stroke="url(#paint0_linear_231_4)" stroke-width="2"/>
<defs>
<linearGradient id="paint0_linear_231_4" x1="80" y1="6" x2="80" y2="34" gradientUnits="userSpaceOnUse">
<stop stop-color="#CBA2FF"/>
<stop offset="1" stop-color="#513B6B"/>
</linearGradient>
</defs>
</svg>
