<svg width="64" height="9" viewBox="0 0 64 9" fill="none" xmlns="http://www.w3.org/2000/svg">
<path fill-rule="evenodd" clip-rule="evenodd" d="M28.2074 0.472116C27.8163 0.472116 27.1644 0.602495 26.8653 1.12402L22.7084 8.32567L24.9709 8.34101L28.1998 2.74995L29.7337 5.38826L26.7886 5.38059L27.939 7.33631L30.8687 7.35165L31.4209 8.32567H33.6911L29.5189 1.10101C29.0971 0.441437 28.5449 0.472116 28.2074 0.472116ZM37.4645 0.472116C35.3784 0.472116 33.6911 2.22843 33.6911 4.3989C33.6911 6.56936 35.3784 8.32567 37.4645 8.32567L41.5447 8.35635L43.5081 6.36228L37.4415 6.37762C36.3371 6.36228 35.6775 5.31156 35.6545 4.40656C35.6238 3.43254 36.3601 2.4125 37.4568 2.39716L41.5447 2.45084L43.5081 0.472116H37.4645ZM4.24026 0.487453C2.16182 0.487453 0.313477 2.35114 0.313477 4.52161C0.313477 6.69207 2.16182 8.34101 4.24026 8.34101H8.16704C10.2455 8.34101 12.0938 6.5847 12.0938 4.41423C12.0938 2.24377 10.2455 0.487453 8.16704 0.487453H4.24026ZM14.0572 0.487453V8.34101H16.0206V2.45084H18.5362C19.2801 2.44317 19.9474 2.71927 19.9474 3.42487C19.9474 4.12279 19.2955 4.4219 18.6282 4.4219L16.0206 4.41423L19.3492 8.35635L21.9108 8.34101L19.9014 5.97881C19.9014 5.97881 21.8954 5.39593 21.9108 3.39419C21.9184 1.73758 20.9137 0.502793 19.2264 0.487453H14.0572ZM47.4348 0.487453H45.4715V7.5894C45.4715 7.78114 45.5405 7.97288 45.6862 8.1186C45.8166 8.25665 46.0083 8.34101 46.2077 8.34101L51.3616 8.35635L53.325 6.37762H47.4348V0.487453ZM56.8606 0.502794C54.7745 0.502794 53.0873 2.2591 53.0873 4.42957C53.0873 6.60004 54.7745 8.35635 56.8606 8.35635H61.1786L63.142 6.39296H56.83C56.3545 6.44665 55.4571 6.04783 55.2347 5.20419L61.1786 5.27322L63.1189 3.48622C63.1189 3.48622 57.2748 3.5169 55.2654 3.52457C55.4495 2.61957 56.83 2.46618 56.83 2.46618H61.1786L63.142 0.502794H56.8606ZM4.24026 2.45084H8.16704C8.55818 2.45851 9.95403 3.04906 9.94636 4.40656C9.93869 5.87911 8.66555 6.36995 8.16704 6.37762H4.24026C3.34293 6.36995 2.43026 5.33457 2.43026 4.44491C2.43026 3.3405 3.47331 2.4355 4.24026 2.45084Z" fill="#261141" fill-opacity="0.6"/>
</svg>
