<svg width="20" height="20" viewBox="0 0 20 20" fill="none" xmlns="http://www.w3.org/2000/svg">
<path d="M8.3999 0.400024C3.9911 0.400024 0.399902 3.99122 0.399902 8.40002C0.399902 12.8088 3.9911 16.4 8.3999 16.4C10.3171 16.4 12.0778 15.7192 13.4577 14.5891L18.2343 19.3656C18.308 19.4424 18.3963 19.5037 18.494 19.546C18.5917 19.5882 18.6968 19.6105 18.8033 19.6116C18.9097 19.6127 19.0153 19.5925 19.1138 19.5523C19.2124 19.512 19.3019 19.4525 19.3772 19.3773C19.4524 19.302 19.5119 19.2125 19.5521 19.114C19.5924 19.0154 19.6125 18.9098 19.6115 18.8034C19.6104 18.697 19.5881 18.5918 19.5458 18.4941C19.5036 18.3964 19.4423 18.3081 19.3655 18.2344L14.589 13.4578C15.7191 12.0779 16.3999 10.3172 16.3999 8.40002C16.3999 3.99122 12.8087 0.400024 8.3999 0.400024ZM8.3999 2.00002C11.944 2.00002 14.7999 4.85593 14.7999 8.40002C14.7999 11.9441 11.944 14.8 8.3999 14.8C4.8558 14.8 1.9999 11.9441 1.9999 8.40002C1.9999 4.85593 4.8558 2.00002 8.3999 2.00002Z" fill="#271337"/>
</svg>
