<svg width="51" height="51" viewBox="0 0 51 51" fill="none" xmlns="http://www.w3.org/2000/svg">
<path d="M25.556 0.282837C11.7337 0.282837 0.424561 11.592 0.424561 25.4142C0.424561 39.2365 11.7337 50.5456 25.556 50.5456C39.3782 50.5456 50.6873 39.2365 50.6873 25.4142C50.6873 11.592 39.3782 0.282837 25.556 0.282837ZM35.464 37.9799C35.0033 37.9799 34.7729 37.7496 34.3122 37.5192C30.8566 35.4438 26.4795 34.294 21.8721 34.294C19.338 34.294 16.5736 34.7547 14.2699 35.2155C13.8091 35.2155 13.3484 35.4458 13.118 35.4458C12.1965 35.4458 11.5054 34.7547 11.5054 33.8332C11.5054 32.9118 11.9662 32.2206 12.8876 32.2206C15.8825 31.5295 18.8794 31.0688 22.1046 31.0688C27.4031 31.0688 32.2409 32.451 36.3876 34.7547C36.8483 35.2155 37.3091 35.4458 37.3091 36.3673C36.8441 37.5192 36.153 37.9799 35.464 37.9799ZM37.996 31.5316C37.5353 31.5316 37.0745 31.3013 36.6138 31.0709C32.6975 28.5368 27.1665 27.1546 21.1789 27.1546C18.1841 27.1546 15.4175 27.6153 13.3463 28.0761C12.8855 28.3064 12.6552 28.3064 12.1944 28.3064C11.0426 28.3064 10.3494 27.385 10.3494 26.4614C10.3494 25.3095 10.8101 24.8488 11.962 24.3859C14.7264 23.6948 17.493 23.0037 21.4093 23.0037C27.8597 23.0037 33.8493 24.6163 38.9196 27.6111C39.6107 28.0719 40.0714 28.763 40.0714 29.4562C39.839 30.6081 39.1499 31.5316 37.996 31.5316ZM40.9908 24.1577C40.5301 24.1577 40.2997 23.9273 39.6086 23.6969C35.0012 21.1628 28.3204 19.5502 21.87 19.5502C18.6448 19.5502 15.1893 20.011 12.1923 20.7021C11.7316 20.7021 11.5012 20.9325 10.8101 20.9325C9.42788 21.1649 8.5064 20.011 8.5064 18.6308C8.5064 17.2507 9.19751 16.5554 10.119 16.3271C13.807 15.4036 17.7233 14.9428 21.87 14.9428C29.0115 14.9428 36.3834 16.5554 42.1448 19.5502C42.8359 20.011 43.527 20.7021 43.527 21.854C43.2966 23.2362 42.373 24.1577 40.9908 24.1577Z" fill="#261141" fill-opacity="0.6"/>
</svg>
