<svg width="16" height="16" viewBox="0 0 16 16" fill="none" xmlns="http://www.w3.org/2000/svg">
<path d="M3.68985 14.2601C3.68985 14.2601 3.68985 14.2601 3.68984 14.2601M3.68985 14.2601L3.68982 14.2602L3.68984 14.2601M3.68985 14.2601L3.68984 14.2601M3.68985 14.2601L3.68984 14.2601M8.38806 11.69C8.07027 11.4982 7.6724 11.4982 7.35461 11.69L3.78714 13.8431L4.73405 9.78482C4.8184 9.42332 4.69556 9.04484 4.41499 8.80177L1.26283 6.07101L5.41139 5.71931C5.781 5.68798 6.1029 5.45463 6.24764 5.11309L7.87134 1.28187L9.49502 5.11309C9.63977 5.45463 9.96167 5.68798 10.3313 5.71931L14.4798 6.07101L11.3277 8.80177C11.0471 9.04484 10.9243 9.42332 11.0086 9.78482L11.9555 13.8431L8.38806 11.69Z" fill="#271337" stroke="#271337" stroke-width="2" stroke-linejoin="round"/>
</svg>
