<svg width="18" height="19" viewBox="0 0 18 19" fill="none" xmlns="http://www.w3.org/2000/svg">
<path d="M0.75 2.79167V16.2083C0.75 17.2673 1.57042 18.125 2.58333 18.125H15.4167C16.4296 18.125 17.25 17.2673 17.25 16.2083V2.79167C17.25 1.73271 16.4296 0.875 15.4167 0.875H2.58333C1.57042 0.875 0.75 1.73271 0.75 2.79167ZM10.5272 9.93221H8.58567V16.2083H7.02092V9.93221H5.11975V8.54167H10.5272V9.93221ZM10.8315 15.8499V14.1719C10.8315 14.1719 11.7078 14.8628 12.7602 14.8628C13.8125 14.8628 13.7712 14.1441 13.7712 14.0454C13.7712 13.0017 10.7912 13.0017 10.7912 10.6902C10.7912 7.54596 15.1334 8.787 15.1334 8.787L15.0793 10.281C15.0793 10.281 14.3515 9.77312 13.5283 9.77312C12.7061 9.77312 12.4091 10.1823 12.4091 10.6193C12.4091 11.7473 15.4167 11.6342 15.4167 13.9045C15.4167 17.4005 10.8315 15.8499 10.8315 15.8499Z" fill="#3758D0"/>
</svg>
