<svg width="188" height="89" viewBox="0 0 188 89" fill="none" xmlns="http://www.w3.org/2000/svg">
<path d="M31 29H41.5H89V36V49C89 56.732 82.732 63 75 63H45C37.268 63 31 56.732 31 49V29Z" fill="#E70027"/>
<path d="M99 29H89V36H99V29Z" fill="#E70027"/>
<path d="M63.5 0L31 29H41.5L68 5L63.5 0Z" fill="#E70027"/>
<path d="M157 29H146.5H99V36V49C99 56.732 105.268 63 113 63H143C150.732 63 157 56.732 157 49V29Z" fill="#E70027"/>
<path d="M89 29H99V36H89V29Z" fill="#E70027"/>
<path d="M124.5 0L157 29H146.5L120 5L124.5 0Z" fill="#E70027"/>
<path d="M124.932 42.9248L115 42.9342L126.306 51.5653L128.001 50.2706L121.148 45.0357L124.28 45.0263L124.932 42.9248Z" fill="#31D06A"/>
<path d="M131.075 42.9278L127.998 33L123.684 46.972L125.379 48.2672L127.997 39.797L128.973 42.9259L131.075 42.9278Z" fill="#31D06A"/>
<path d="M132.971 49.0719L141 42.9268L127.028 42.9308L126.38 45.0259L134.851 45.026L132.323 46.9692L132.971 49.0719Z" fill="#31D06A"/>
<path d="M127.998 52.8657L136.038 58.9957L131.717 45.0262L129.622 45.0259L132.239 53.4961L129.7 51.5682L127.998 52.8657Z" fill="#31D06A"/>
<path d="M123.03 49.0664L119.969 59.0001L131.271 50.3624L130.623 48.2671L123.77 53.5019L124.73 50.3672L123.03 49.0664Z" fill="#31D06A"/>
<path d="M56.9316 42.9248L47 42.9342L58.3057 51.5653L60.0011 50.2706L53.1481 45.0357L56.2802 45.0263L56.9316 42.9248Z" fill="#31D06A"/>
<path d="M63.0752 42.9278L59.9977 33L55.6838 46.972L57.3788 48.2672L59.9966 39.797L60.9729 42.9259L63.0752 42.9278Z" fill="#31D06A"/>
<path d="M64.9706 49.0719L73.0001 42.9268L59.0283 42.9308L58.3804 45.0259L66.8513 45.026L64.3227 46.9692L64.9706 49.0719Z" fill="#31D06A"/>
<path d="M59.9984 52.8657L68.0384 58.9957L63.7173 45.0262L61.6218 45.0259L64.2394 53.4961L61.7003 51.5682L59.9984 52.8657Z" fill="#31D06A"/>
<path d="M55.03 49.0664L51.9695 59.0001L63.2707 50.3624L62.6235 48.2671L55.7703 53.5019L56.7297 50.3672L55.03 49.0664Z" fill="#31D06A"/>
<path d="M7.92773 84C7.78451 83.7207 7.68066 83.3734 7.61621 82.958C6.86426 83.7959 5.88672 84.2148 4.68359 84.2148C3.54492 84.2148 2.59961 83.8854 1.84766 83.2266C1.10286 82.5677 0.730469 81.737 0.730469 80.7344C0.730469 79.5026 1.18522 78.5573 2.09473 77.8984C3.01139 77.2396 4.33268 76.9066 6.05859 76.8994H7.4873V76.2334C7.4873 75.6963 7.34766 75.2666 7.06836 74.9443C6.79622 74.6221 6.36296 74.4609 5.76855 74.4609C5.24577 74.4609 4.83398 74.5863 4.5332 74.8369C4.23958 75.0876 4.09277 75.4313 4.09277 75.8682H0.988281C0.988281 75.195 1.19596 74.5719 1.61133 73.999C2.02669 73.4261 2.61393 72.9785 3.37305 72.6562C4.13216 72.3268 4.98438 72.1621 5.92969 72.1621C7.36198 72.1621 8.49707 72.5238 9.33496 73.2471C10.18 73.9632 10.6025 74.973 10.6025 76.2764V81.3145C10.6097 82.4173 10.7637 83.2516 11.0645 83.8174V84H7.92773ZM5.36035 81.8408C5.81868 81.8408 6.24121 81.7406 6.62793 81.54C7.01465 81.3324 7.30111 81.0566 7.4873 80.7129V78.7148H6.32715C4.77311 78.7148 3.94596 79.252 3.8457 80.3262L3.83496 80.5088C3.83496 80.8955 3.97103 81.2142 4.24316 81.4648C4.5153 81.7155 4.8877 81.8408 5.36035 81.8408ZM23.0957 79.7783L24.6211 72.377H27.6182L24.6533 84H22.0537L19.8516 76.6846L17.6494 84H15.0605L12.0957 72.377H15.0928L16.6074 79.7676L18.7344 72.377H20.9795L23.0957 79.7783ZM34.5146 84.2148C32.8102 84.2148 31.4209 83.6921 30.3467 82.6465C29.2796 81.6009 28.7461 80.208 28.7461 78.4678V78.167C28.7461 76.9997 28.9717 75.9577 29.4229 75.041C29.874 74.1172 30.5114 73.4082 31.335 72.9141C32.1657 72.4128 33.111 72.1621 34.1709 72.1621C35.7607 72.1621 37.0104 72.6634 37.9199 73.666C38.8366 74.6686 39.2949 76.0902 39.2949 77.9307V79.1982H31.8936C31.9938 79.9574 32.2946 80.5661 32.7959 81.0244C33.3044 81.4827 33.9453 81.7119 34.7188 81.7119C35.9147 81.7119 36.8493 81.2786 37.5225 80.4121L39.0479 82.1201C38.5824 82.779 37.9521 83.2946 37.1572 83.667C36.3623 84.0322 35.4814 84.2148 34.5146 84.2148ZM34.1602 74.6758C33.5443 74.6758 33.043 74.8835 32.6562 75.2988C32.2767 75.7142 32.0332 76.3086 31.9258 77.082H36.2441V76.835C36.2298 76.1475 36.0436 75.6175 35.6855 75.2451C35.3275 74.8656 34.819 74.6758 34.1602 74.6758ZM47.3623 80.7881C47.3623 80.4085 47.1725 80.1113 46.793 79.8965C46.4206 79.6745 45.819 79.4775 44.9883 79.3057C42.224 78.7256 40.8418 77.5511 40.8418 75.7822C40.8418 74.751 41.2679 73.8916 42.1201 73.2041C42.9795 72.5094 44.1003 72.1621 45.4824 72.1621C46.9577 72.1621 48.1357 72.5094 49.0166 73.2041C49.9046 73.8988 50.3486 74.8011 50.3486 75.9111H47.2441C47.2441 75.4671 47.1009 75.1019 46.8145 74.8154C46.528 74.5218 46.0804 74.375 45.4717 74.375C44.9489 74.375 44.5443 74.4932 44.2578 74.7295C43.9714 74.9658 43.8281 75.2666 43.8281 75.6318C43.8281 75.9756 43.9893 76.2549 44.3115 76.4697C44.641 76.6774 45.1924 76.86 45.9658 77.0176C46.7393 77.168 47.391 77.3398 47.9209 77.5332C49.5609 78.1348 50.3809 79.1768 50.3809 80.6592C50.3809 81.7191 49.9261 82.5785 49.0166 83.2373C48.1071 83.889 46.9326 84.2148 45.4932 84.2148C44.5192 84.2148 43.6527 84.043 42.8936 83.6992C42.1416 83.3483 41.5508 82.8721 41.1211 82.2705C40.6914 81.6618 40.4766 81.0065 40.4766 80.3047H43.4199C43.4486 80.8561 43.6527 81.2786 44.0322 81.5723C44.4118 81.8659 44.9202 82.0127 45.5576 82.0127C46.152 82.0127 46.5996 81.9017 46.9004 81.6797C47.2083 81.4505 47.3623 81.1533 47.3623 80.7881ZM51.9062 78.0811C51.9062 76.9281 52.1283 75.9004 52.5723 74.998C53.0163 74.0957 53.6536 73.3975 54.4844 72.9033C55.3223 72.4092 56.2926 72.1621 57.3955 72.1621C58.9639 72.1621 60.2422 72.6419 61.2305 73.6016C62.2259 74.5612 62.7809 75.8646 62.8955 77.5117L62.917 78.3066C62.917 80.0898 62.4193 81.5221 61.4238 82.6035C60.4284 83.6777 59.0928 84.2148 57.417 84.2148C55.7412 84.2148 54.402 83.6777 53.3994 82.6035C52.404 81.5293 51.9062 80.0684 51.9062 78.2207V78.0811ZM55.0107 78.3066C55.0107 79.4095 55.2184 80.2546 55.6338 80.8418C56.0492 81.4219 56.6436 81.7119 57.417 81.7119C58.1689 81.7119 58.7562 81.4255 59.1787 80.8525C59.6012 80.2725 59.8125 79.3486 59.8125 78.0811C59.8125 76.9997 59.6012 76.1618 59.1787 75.5674C58.7562 74.973 58.1618 74.6758 57.3955 74.6758C56.6364 74.6758 56.0492 74.973 55.6338 75.5674C55.2184 76.1546 55.0107 77.0677 55.0107 78.3066ZM67.7402 72.377L67.8369 73.6768C68.6605 72.667 69.7741 72.1621 71.1777 72.1621C72.6745 72.1621 73.7021 72.7529 74.2607 73.9346C75.0771 72.7529 76.2409 72.1621 77.752 72.1621C79.0124 72.1621 79.9505 72.5309 80.5664 73.2686C81.1823 73.999 81.4902 75.1019 81.4902 76.5771V84H78.375V76.5879C78.375 75.929 78.2461 75.4492 77.9883 75.1484C77.7305 74.8405 77.2757 74.6865 76.624 74.6865C75.693 74.6865 75.0485 75.1305 74.6904 76.0186L74.7012 84H71.5967V76.5986C71.5967 75.9255 71.4642 75.4385 71.1992 75.1377C70.9342 74.8369 70.4831 74.6865 69.8457 74.6865C68.9648 74.6865 68.3275 75.0518 67.9336 75.7822V84H64.8291V72.377H67.7402ZM89.2354 84.2148C87.5309 84.2148 86.1416 83.6921 85.0674 82.6465C84.0003 81.6009 83.4668 80.208 83.4668 78.4678V78.167C83.4668 76.9997 83.6924 75.9577 84.1436 75.041C84.5947 74.1172 85.2321 73.4082 86.0557 72.9141C86.8864 72.4128 87.8317 72.1621 88.8916 72.1621C90.4814 72.1621 91.7311 72.6634 92.6406 73.666C93.5573 74.6686 94.0156 76.0902 94.0156 77.9307V79.1982H86.6143C86.7145 79.9574 87.0153 80.5661 87.5166 81.0244C88.0251 81.4827 88.666 81.7119 89.4395 81.7119C90.6354 81.7119 91.57 81.2786 92.2432 80.4121L93.7686 82.1201C93.3031 82.779 92.6729 83.2946 91.8779 83.667C91.083 84.0322 90.2021 84.2148 89.2354 84.2148ZM88.8809 74.6758C88.265 74.6758 87.7637 74.8835 87.377 75.2988C86.9974 75.7142 86.7539 76.3086 86.6465 77.082H90.9648V76.835C90.9505 76.1475 90.7643 75.6175 90.4062 75.2451C90.0482 74.8656 89.5397 74.6758 88.8809 74.6758ZM104.178 72.377L104.274 73.6768C105.098 72.667 106.212 72.1621 107.615 72.1621C109.112 72.1621 110.14 72.7529 110.698 73.9346C111.515 72.7529 112.678 72.1621 114.189 72.1621C115.45 72.1621 116.388 72.5309 117.004 73.2686C117.62 73.999 117.928 75.1019 117.928 76.5771V84H114.812V76.5879C114.812 75.929 114.684 75.4492 114.426 75.1484C114.168 74.8405 113.713 74.6865 113.062 74.6865C112.131 74.6865 111.486 75.1305 111.128 76.0186L111.139 84H108.034V76.5986C108.034 75.9255 107.902 75.4385 107.637 75.1377C107.372 74.8369 106.921 74.6865 106.283 74.6865C105.402 74.6865 104.765 75.0518 104.371 75.7822V84H101.267V72.377H104.178ZM119.84 78.0811C119.84 76.9281 120.062 75.9004 120.506 74.998C120.95 74.0957 121.587 73.3975 122.418 72.9033C123.256 72.4092 124.226 72.1621 125.329 72.1621C126.897 72.1621 128.176 72.6419 129.164 73.6016C130.16 74.5612 130.715 75.8646 130.829 77.5117L130.851 78.3066C130.851 80.0898 130.353 81.5221 129.357 82.6035C128.362 83.6777 127.026 84.2148 125.351 84.2148C123.675 84.2148 122.336 83.6777 121.333 82.6035C120.338 81.5293 119.84 80.0684 119.84 78.2207V78.0811ZM122.944 78.3066C122.944 79.4095 123.152 80.2546 123.567 80.8418C123.983 81.4219 124.577 81.7119 125.351 81.7119C126.103 81.7119 126.69 81.4255 127.112 80.8525C127.535 80.2725 127.746 79.3486 127.746 78.0811C127.746 76.9997 127.535 76.1618 127.112 75.5674C126.69 74.973 126.095 74.6758 125.329 74.6758C124.57 74.6758 123.983 74.973 123.567 75.5674C123.152 76.1546 122.944 77.0677 122.944 78.3066ZM139.294 75.2881C138.871 75.2308 138.499 75.2021 138.177 75.2021C137.002 75.2021 136.232 75.5996 135.867 76.3945V84H132.763V72.377H135.695L135.781 73.7627C136.404 72.6956 137.267 72.1621 138.37 72.1621C138.714 72.1621 139.036 72.2087 139.337 72.3018L139.294 75.2881ZM139.928 78.0811C139.928 76.9281 140.15 75.9004 140.594 74.998C141.038 74.0957 141.675 73.3975 142.506 72.9033C143.344 72.4092 144.314 72.1621 145.417 72.1621C146.985 72.1621 148.264 72.6419 149.252 73.6016C150.247 74.5612 150.802 75.8646 150.917 77.5117L150.938 78.3066C150.938 80.0898 150.441 81.5221 149.445 82.6035C148.45 83.6777 147.114 84.2148 145.438 84.2148C143.763 84.2148 142.424 83.6777 141.421 82.6035C140.425 81.5293 139.928 80.0684 139.928 78.2207V78.0811ZM143.032 78.3066C143.032 79.4095 143.24 80.2546 143.655 80.8418C144.071 81.4219 144.665 81.7119 145.438 81.7119C146.19 81.7119 146.778 81.4255 147.2 80.8525C147.623 80.2725 147.834 79.3486 147.834 78.0811C147.834 76.9997 147.623 76.1618 147.2 75.5674C146.778 74.973 146.183 74.6758 145.417 74.6758C144.658 74.6758 144.071 74.973 143.655 75.5674C143.24 76.1546 143.032 77.0677 143.032 78.3066ZM157.685 81.7119C158.257 81.7119 158.723 81.5544 159.081 81.2393C159.439 80.9242 159.625 80.5052 159.64 79.9824H162.551C162.544 80.7702 162.329 81.4935 161.906 82.1523C161.484 82.804 160.904 83.3125 160.166 83.6777C159.436 84.0358 158.626 84.2148 157.738 84.2148C156.077 84.2148 154.766 83.6885 153.807 82.6357C152.847 81.5758 152.367 80.1149 152.367 78.2529V78.0488C152.367 76.2585 152.843 74.8298 153.796 73.7627C154.748 72.6956 156.055 72.1621 157.717 72.1621C159.171 72.1621 160.334 72.5775 161.208 73.4082C162.089 74.2318 162.536 75.3311 162.551 76.7061H159.64C159.625 76.1045 159.439 75.6175 159.081 75.2451C158.723 74.8656 158.25 74.6758 157.663 74.6758C156.94 74.6758 156.392 74.9408 156.02 75.4707C155.654 75.9935 155.472 76.8457 155.472 78.0273V78.3496C155.472 79.5456 155.654 80.4049 156.02 80.9277C156.385 81.4505 156.94 81.7119 157.685 81.7119ZM169.157 81.7119C169.73 81.7119 170.196 81.5544 170.554 81.2393C170.912 80.9242 171.098 80.5052 171.112 79.9824H174.023C174.016 80.7702 173.801 81.4935 173.379 82.1523C172.956 82.804 172.376 83.3125 171.639 83.6777C170.908 84.0358 170.099 84.2148 169.211 84.2148C167.549 84.2148 166.239 83.6885 165.279 82.6357C164.32 81.5758 163.84 80.1149 163.84 78.2529V78.0488C163.84 76.2585 164.316 74.8298 165.269 73.7627C166.221 72.6956 167.528 72.1621 169.189 72.1621C170.643 72.1621 171.807 72.5775 172.681 73.4082C173.562 74.2318 174.009 75.3311 174.023 76.7061H171.112C171.098 76.1045 170.912 75.6175 170.554 75.2451C170.196 74.8656 169.723 74.6758 169.136 74.6758C168.412 74.6758 167.865 74.9408 167.492 75.4707C167.127 75.9935 166.944 76.8457 166.944 78.0273V78.3496C166.944 79.5456 167.127 80.4049 167.492 80.9277C167.857 81.4505 168.412 81.7119 169.157 81.7119ZM175.312 78.0811C175.312 76.9281 175.535 75.9004 175.979 74.998C176.423 74.0957 177.06 73.3975 177.891 72.9033C178.729 72.4092 179.699 72.1621 180.802 72.1621C182.37 72.1621 183.648 72.6419 184.637 73.6016C185.632 74.5612 186.187 75.8646 186.302 77.5117L186.323 78.3066C186.323 80.0898 185.826 81.5221 184.83 82.6035C183.835 83.6777 182.499 84.2148 180.823 84.2148C179.147 84.2148 177.808 83.6777 176.806 82.6035C175.81 81.5293 175.312 80.0684 175.312 78.2207V78.0811ZM178.417 78.3066C178.417 79.4095 178.625 80.2546 179.04 80.8418C179.455 81.4219 180.05 81.7119 180.823 81.7119C181.575 81.7119 182.162 81.4255 182.585 80.8525C183.007 80.2725 183.219 79.3486 183.219 78.0811C183.219 76.9997 183.007 76.1618 182.585 75.5674C182.162 74.973 181.568 74.6758 180.802 74.6758C180.043 74.6758 179.455 74.973 179.04 75.5674C178.625 76.1546 178.417 77.0677 178.417 78.3066Z" fill="#E70027"/>
</svg>
